<svg version="1.2" xmlns="http://www.w3.org/2000/svg" viewBox="0 0 547 244" width="547" height="244"><defs><clipPath clipPathUnits="userSpaceOnUse" id="cp1"><path d="m0.74 200.48h34.68v7.01h-34.68zm13.53 42.24h7.62v-35.22h-7.62z"/></clipPath><clipPath clipPathUnits="userSpaceOnUse" id="cp2"><path d="m0 200.33h36v42.67h-36z"/></clipPath><clipPath clipPathUnits="userSpaceOnUse" id="cp3"><path d="m0.74 200.48h34.68v7.01h-34.68zm13.53 42.24h7.62v-35.22h-7.62z"/></clipPath><clipPath clipPathUnits="userSpaceOnUse" id="cp4"><path d="m85.08 200.48h34.56v42.25h-34.56z"/></clipPath><clipPath clipPathUnits="userSpaceOnUse" id="cp5"><path d="m110.9 242.72l-9.96-14.19h-8.17v14.19h-7.69v-42.24h18.38c9.04 0 15.8 5.79 15.8 14.03 0 6.4-4.12 11.31-10.21 13.21l10.58 15zm-18.13-21.27h9.84c5.22 0 8.85-2.64 8.85-6.96 0-4.3-3.63-6.94-8.85-6.94h-9.84z"/></clipPath><clipPath clipPathUnits="userSpaceOnUse" id="cp6"><path d="m84 200.33h36v42.67h-36z"/></clipPath><clipPath clipPathUnits="userSpaceOnUse" id="cp7"><path d="m85.08 200.48h34.56v42.25h-34.56z"/></clipPath><clipPath clipPathUnits="userSpaceOnUse" id="cp8"><path d="m110.9 242.72l-9.96-14.19h-8.17v14.19h-7.69v-42.24h18.38c9.04 0 15.8 5.79 15.8 14.03 0 6.4-4.12 11.31-10.21 13.21l10.58 15zm-18.13-21.27h9.84c5.22 0 8.85-2.64 8.85-6.96 0-4.3-3.63-6.94-8.85-6.94h-9.84z"/></clipPath><clipPath clipPathUnits="userSpaceOnUse" id="cp9"><path d="m166.1 200.48h43.89v42.41h-43.89z"/></clipPath><clipPath clipPathUnits="userSpaceOnUse" id="cp10"><path d="m198.26 235.09h-20.42l-3.2 7.62h-8.54l17.65-42.23h8.55l17.64 42.24h-8.48zm-2.77-6.64l-7.45-17.76-7.43 17.76z"/></clipPath><clipPath clipPathUnits="userSpaceOnUse" id="cp11"><path d="m165.33 200.33h45.34v42.67h-45.34z"/></clipPath><clipPath clipPathUnits="userSpaceOnUse" id="cp12"><path d="m166.1 200.48h43.89v42.25h-43.89z"/></clipPath><clipPath clipPathUnits="userSpaceOnUse" id="cp13"><path d="m198.26 235.09h-20.42l-3.2 7.62h-8.54l17.65-42.23h8.55l17.64 42.24h-8.48zm-2.77-6.64l-7.45-17.76-7.43 17.76z"/></clipPath><clipPath clipPathUnits="userSpaceOnUse" id="cp14"><path d="m1 0.33h41.03v171.86h-41.03z"/></clipPath><clipPath clipPathUnits="userSpaceOnUse" id="cp15"><path d="m0 0.33h42.67v172h-42.67z"/></clipPath><clipPath clipPathUnits="userSpaceOnUse" id="cp16"><path d="m1 0.33h41.03v171.86h-41.03z"/></clipPath><clipPath clipPathUnits="userSpaceOnUse" id="cp17"><path d="m41.33 0.33h113.8v161.23h-113.8z"/></clipPath><clipPath clipPathUnits="userSpaceOnUse" id="cp18"><path d="m125.73 52.14l28.7-19.79 0.63-0.44-45.15-31.13v11.12c-14.31 1.22-27.49 6.47-38.38 14.63-10.89 8.16-19.47 19.17-24.67 31.94-2.35 5.74-3.99 11.87-4.81 18.25q-0.66 4.85-0.66 9.85 0 4.97 0.66 9.82c0.82 6.35 2.46 12.5 4.81 18.3 8.73 21.53 27.25 38.41 50.83 44.51 2.24 0.57 4.57 1.04 6.92 1.45 3.86 0.61 7.77 0.9 11.65 0.9h0.11c4.87-0.03 9.68-0.49 14.36-1.39v-42.89c-4.46 2.12-9.35 3.22-14.47 3.25-1.2 0-2.3-0.06-3.45-0.19-0.36-0.03-0.71-0.05-1.18-0.14-0.19 0-0.38-0.05-0.71-0.11-1.42-0.22-2.87-0.55-4.49-1.01q-1.89-0.55-3.83-1.42c-12.42-5.38-20.46-17.63-20.46-31.24 0-16.65 11.98-30.52 27.77-33.51v10.12z"/></clipPath><clipPath clipPathUnits="userSpaceOnUse" id="cp19"><path d="m41.33 0.33h114.67v161.34h-114.67z"/></clipPath><clipPath clipPathUnits="userSpaceOnUse" id="cp20"><path d="m41.33 0.49h113.79v161.07h-113.79z"/></clipPath><clipPath clipPathUnits="userSpaceOnUse" id="cp21"><path d="m125.73 52.14l28.7-19.79 0.63-0.44-45.15-31.13v11.12c-14.31 1.22-27.49 6.47-38.38 14.63-10.89 8.16-19.47 19.17-24.67 31.94-2.35 5.74-3.99 11.87-4.81 18.25q-0.66 4.85-0.66 9.85 0 4.97 0.66 9.82c0.82 6.35 2.46 12.5 4.81 18.3 8.73 21.53 27.25 38.41 50.83 44.51 2.24 0.57 4.57 1.04 6.92 1.45 3.86 0.61 7.77 0.9 11.65 0.9h0.11c4.87-0.03 9.68-0.49 14.36-1.39v-42.89c-4.46 2.12-9.35 3.22-14.47 3.25-1.2 0-2.3-0.06-3.45-0.19-0.36-0.03-0.71-0.05-1.18-0.14-0.19 0-0.38-0.05-0.71-0.11-1.42-0.22-2.87-0.55-4.49-1.01q-1.89-0.55-3.83-1.42c-12.42-5.38-20.46-17.63-20.46-31.24 0-16.65 11.98-30.52 27.77-33.51v10.12z"/></clipPath><clipPath clipPathUnits="userSpaceOnUse" id="cp22"><path d="m151.57 30.14h142.08v142.08h-142.08z"/></clipPath><clipPath clipPathUnits="userSpaceOnUse" id="cp23"><path d="m293.6 101.34c0 39.13-31.71 70.84-70.84 70.84-39.09 0-70.8-31.71-70.8-70.84 0-39.08 31.71-70.8 70.8-70.8 39.13 0 70.84 31.72 70.84 70.8zm-42.02 0c0-15.9-12.89-28.78-28.82-28.78-15.9 0-28.78 12.89-28.78 28.78 0 15.94 12.89 28.82 28.78 28.82 15.94 0 28.82-12.89 28.82-28.82z"/></clipPath><clipPath clipPathUnits="userSpaceOnUse" id="cp24"><path d="m150.67 29.67h144v142.66h-144z"/></clipPath><clipPath clipPathUnits="userSpaceOnUse" id="cp25"><path d="m151.68 30.26h141.97v141.96h-141.97z"/></clipPath><clipPath clipPathUnits="userSpaceOnUse" id="cp26"><path d="m293.6 101.34c0 39.13-31.71 70.84-70.84 70.84-39.09 0-70.8-31.71-70.8-70.84 0-39.08 31.71-70.8 70.8-70.8 39.13 0 70.84 31.72 70.84 70.8zm-42.02 0c0-15.9-12.89-28.78-28.82-28.78-15.9 0-28.78 12.89-28.78 28.78 0 15.94 12.89 28.82 28.78 28.82 15.94 0 28.82-12.89 28.82-28.82z"/></clipPath><clipPath clipPathUnits="userSpaceOnUse" id="cp27"><path d="m259.17 200.48h38.82v42.31h-38.82z"/></clipPath><clipPath clipPathUnits="userSpaceOnUse" id="cp28"><path d="m259.17 200.48h14.88c13.96 0 23.8 8.73 23.8 21.09 0 12.36-9.84 21.15-23.8 21.15h-14.88zm15.68 35.3c8.91 0 15.19-5.91 15.19-14.21 0-8.29-6.28-14.14-15.19-14.14h-7.99v28.35z"/></clipPath><clipPath clipPathUnits="userSpaceOnUse" id="cp29"><path d="m258.67 200.33h40v42.67h-40z"/></clipPath><clipPath clipPathUnits="userSpaceOnUse" id="cp30"><path d="m259.17 200.48h38.75v42.25h-38.75z"/></clipPath><clipPath clipPathUnits="userSpaceOnUse" id="cp31"><path d="m259.17 200.48h14.88c13.96 0 23.8 8.73 23.8 21.09 0 12.36-9.84 21.15-23.8 21.15h-14.88zm15.68 35.3c8.91 0 15.19-5.91 15.19-14.21 0-8.29-6.28-14.14-15.19-14.14h-7.99v28.35z"/></clipPath><clipPath clipPathUnits="userSpaceOnUse" id="cp32"><path d="m308.49 30.22h85.67v137.99h-85.67z"/></clipPath><clipPath clipPathUnits="userSpaceOnUse" id="cp33"><path d="m350.88 36.53c-4.67 2.05-9.08 4.61-13.17 7.54q-2 1.51-3.92 3.13h-0.05c-1.4 1.2-2.77 2.49-4.08 3.77-1.05 1.08-2.1 2.17-3.1 3.29q-0.55 0.6-1.03 1.2c-0.64 0.76-1.29 1.57-1.94 2.37q-0.89 1.19-1.8 2.45c-7.75 10.73-12.58 23.65-13.22 37.7q-0.06 1.68-0.08 3.37 0.02 1.69 0.08 3.37v63.33h41.95v-66.7q0-2.17 0.36-4.21c1.96-13.89 13.96-24.57 28.41-24.57 5.3 0 10.27 1.4 14.53 3.93v-44.47c-4.69-0.96-9.54-1.48-14.53-1.48-10.12 0-19.75 2.13-28.41 5.98z"/></clipPath><clipPath clipPathUnits="userSpaceOnUse" id="cp34"><path d="m308 29.67h86.67v138.66h-86.67z"/></clipPath><clipPath clipPathUnits="userSpaceOnUse" id="cp35"><path d="m308.49 30.26h85.43v137.91h-85.43z"/></clipPath><clipPath clipPathUnits="userSpaceOnUse" id="cp36"><path d="m350.88 36.53c-4.67 2.05-9.08 4.61-13.17 7.54q-2 1.51-3.92 3.13h-0.05c-1.4 1.2-2.77 2.49-4.08 3.77-1.05 1.08-2.1 2.17-3.1 3.29q-0.55 0.6-1.03 1.2c-0.64 0.76-1.29 1.57-1.94 2.37q-0.89 1.19-1.8 2.45c-7.75 10.73-12.58 23.65-13.22 37.7q-0.06 1.68-0.08 3.37 0.02 1.69 0.08 3.37v63.33h41.95v-66.7q0-2.17 0.36-4.21c1.96-13.89 13.96-24.57 28.41-24.57 5.3 0 10.27 1.4 14.53 3.93v-44.47c-4.69-0.96-9.54-1.48-14.53-1.48-10.12 0-19.75 2.13-28.41 5.98z"/></clipPath><clipPath clipPathUnits="userSpaceOnUse" id="cp37"><path d="m348.49 200.48h31.8v7.01h-24.11v10.2h21.83v7.01h-21.83v11.01h-7.69zm0 42.24h31.8v-7.01h-31.8z"/></clipPath><clipPath clipPathUnits="userSpaceOnUse" id="cp38"><path d="m348 200.33h33.33v42.67h-33.33z"/></clipPath><clipPath clipPathUnits="userSpaceOnUse" id="cp39"><path d="m348.49 200.48h31.8v7.01h-24.11v10.2h21.83v7.01h-21.83v11.01h-7.69zm0 42.24h31.8v-7.01h-31.8z"/></clipPath><clipPath clipPathUnits="userSpaceOnUse" id="cp40"><path d="m430.74 200.48h34.55v42.25h-34.55z"/></clipPath><clipPath clipPathUnits="userSpaceOnUse" id="cp41"><path d="m456.56 242.72l-9.96-14.19h-8.17v14.19h-7.69v-42.24h18.38c9.04 0 15.8 5.79 15.8 14.03 0 6.4-4.12 11.31-10.21 13.21l10.57 15zm-18.13-21.27h9.84c5.22 0 8.85-2.64 8.85-6.96 0-4.3-3.63-6.94-8.85-6.94h-9.84z"/></clipPath><clipPath clipPathUnits="userSpaceOnUse" id="cp42"><path d="m430.67 200.33h34.66v42.67h-34.66z"/></clipPath><clipPath clipPathUnits="userSpaceOnUse" id="cp43"><path d="m430.74 200.48h34.55v42.25h-34.55z"/></clipPath><clipPath clipPathUnits="userSpaceOnUse" id="cp44"><path d="m456.56 242.72l-9.96-14.19h-8.17v14.19h-7.69v-42.24h18.38c9.04 0 15.8 5.79 15.8 14.03 0 6.4-4.12 11.31-10.21 13.21l10.57 15zm-18.13-21.27h9.84c5.22 0 8.85-2.64 8.85-6.96 0-4.3-3.63-6.94-8.85-6.94h-9.84z"/></clipPath><clipPath clipPathUnits="userSpaceOnUse" id="cp45"><path d="m404.82 30h141.85v142.33h-141.85z"/></clipPath><clipPath clipPathUnits="userSpaceOnUse" id="cp46"><path d="m545.88 92.27c-0.49-3.85-1.3-7.63-2.39-11.23q-0.59-2.03-1.36-4.01c-10.98-30.04-41.68-50.54-76.48-45.8-31.63 4.31-56.82 30.22-60.37 61.94-4.79 42.8 28.56 79.02 70.34 79.02 4.25 0 8.47-0.4 12.52-1.12v-43.75c-3.81 1.81-8.03 2.85-12.52 2.85-16.95 0-30.48-14.65-28.6-32.03 1.39-12.92 11.74-23.56 24.62-25.29 7.17-0.97 13.87 0.73 19.35 4.19 1.85 1.12 3.53 2.49 5.06 4.01 4.41 4.46 7.38 10.32 8.15 16.86v69.54h41.98v-69.61q-0.15-2.79-0.3-5.57z"/></clipPath><clipPath clipPathUnits="userSpaceOnUse" id="cp47"><path d="m404 29.67h142.67v142.66h-142.67z"/></clipPath><clipPath clipPathUnits="userSpaceOnUse" id="cp48"><path d="m404.82 30.26h141.42v142.07h-141.42z"/></clipPath><clipPath clipPathUnits="userSpaceOnUse" id="cp49"><path d="m545.88 92.27c-0.49-3.85-1.3-7.63-2.39-11.23q-0.59-2.03-1.36-4.01c-10.98-30.04-41.68-50.54-76.48-45.8-31.63 4.31-56.82 30.22-60.37 61.94-4.79 42.8 28.56 79.02 70.34 79.02 4.25 0 8.47-0.4 12.52-1.12v-43.75c-3.81 1.81-8.03 2.85-12.52 2.85-16.95 0-30.48-14.65-28.6-32.03 1.39-12.92 11.74-23.56 24.62-25.29 7.17-0.97 13.87 0.73 19.35 4.19 1.85 1.12 3.53 2.49 5.06 4.01 4.41 4.46 7.38 10.32 8.15 16.86v69.54h41.98v-69.61q-0.15-2.79-0.3-5.57z"/></clipPath><clipPath clipPathUnits="userSpaceOnUse" id="cp50"><path d="m512.49 199.69h34.08v43.75h-34.08z"/></clipPath><clipPath clipPathUnits="userSpaceOnUse" id="cp51"><path d="m512.49 236.57l4.44-5.47c3.87 3.5 8.36 5.72 13.9 5.72 5.23 0 7.93-2.58 7.93-5.6 0-3.5-3.02-4.66-9.78-6.27-8.74-2.02-14.82-4.54-14.82-12.48 0-7.38 6.27-12.78 15.19-12.78 6.7 0 11.74 2.26 15.99 5.89l-4.18 5.65c-3.69-3.19-7.93-4.97-12.11-4.97-4.24 0-7.13 2.57-7.13 5.53 0 3.44 3.14 4.66 9.84 6.2 8.79 1.97 14.7 4.8 14.7 12.48 0 7.58-5.78 12.93-15.86 12.93-7.26 0-13.41-2.46-18.08-6.83"/></clipPath><clipPath clipPathUnits="userSpaceOnUse" id="cp52"><path d="m512 199h34.67v45.33h-34.67z"/></clipPath><clipPath clipPathUnits="userSpaceOnUse" id="cp53"><path d="m512.49 199.69h34.07v43.75h-34.07z"/></clipPath><clipPath clipPathUnits="userSpaceOnUse" id="cp54"><path d="m512.49 236.57l4.44-5.47c3.87 3.5 8.36 5.72 13.9 5.72 5.23 0 7.93-2.58 7.93-5.6 0-3.5-3.02-4.66-9.78-6.27-8.74-2.02-14.82-4.54-14.82-12.48 0-7.38 6.27-12.78 15.19-12.78 6.7 0 11.74 2.26 15.99 5.89l-4.18 5.65c-3.69-3.19-7.93-4.97-12.11-4.97-4.24 0-7.13 2.57-7.13 5.53 0 3.44 3.14 4.66 9.84 6.2 8.79 1.97 14.7 4.8 14.7 12.48 0 7.58-5.78 12.93-15.86 12.93-7.26 0-13.41-2.46-18.08-6.83"/></clipPath></defs><style>.a{fill:#13284d}.b{fill:#b51f32}</style><g clip-path="url(#cp1)"><g clip-path="url(#cp2)"><g clip-path="url(#cp3)"><path class="a" d="m0.7 200.5h34.7v42.3h-34.7z"/></g></g></g><g clip-path="url(#cp4)"><g clip-path="url(#cp5)"><g clip-path="url(#cp6)"><g clip-path="url(#cp7)"><g clip-path="url(#cp8)"><path class="a" d="m85.1 200.5h34.5v42.2h-34.5z"/></g></g></g></g></g><g clip-path="url(#cp9)"><g clip-path="url(#cp10)"><g clip-path="url(#cp11)"><g clip-path="url(#cp12)"><g clip-path="url(#cp13)"><path class="a" d="m166.1 200.5h43.9v42.2h-43.9z"/></g></g></g></g></g><g clip-path="url(#cp14)"><g clip-path="url(#cp15)"><g clip-path="url(#cp16)"><path fill-rule="evenodd" class="b" d="m-1110.4-657.3h2764.8v1555.2h-2764.8z"/></g></g></g><g clip-path="url(#cp17)"><g clip-path="url(#cp18)"><g clip-path="url(#cp19)"><g clip-path="url(#cp20)"><g clip-path="url(#cp21)"><path fill-rule="evenodd" class="b" d="m-1110.4-657.3h2764.8v1555.2h-2764.8z"/></g></g></g></g></g><g clip-path="url(#cp22)"><g clip-path="url(#cp23)"><g clip-path="url(#cp24)"><g clip-path="url(#cp25)"><g clip-path="url(#cp26)"><path fill-rule="evenodd" class="a" d="m-1110.4-657.3h2764.8v1555.2h-2764.8z"/></g></g></g></g></g><g clip-path="url(#cp27)"><g clip-path="url(#cp28)"><g clip-path="url(#cp29)"><g clip-path="url(#cp30)"><g clip-path="url(#cp31)"><path class="a" d="m259.2 200.5h38.6v42.3h-38.6z"/></g></g></g></g></g><g clip-path="url(#cp32)"><g clip-path="url(#cp33)"><g clip-path="url(#cp34)"><g clip-path="url(#cp35)"><g clip-path="url(#cp36)"><path class="a" d="m308.5 30.6h85.3v137.6h-85.3z"/></g></g></g></g></g><g clip-path="url(#cp37)"><g clip-path="url(#cp38)"><g clip-path="url(#cp39)"><path class="a" d="m348.5 200.5h31.8v42.2h-31.8z"/></g></g></g><g clip-path="url(#cp40)"><g clip-path="url(#cp41)"><g clip-path="url(#cp42)"><g clip-path="url(#cp43)"><g clip-path="url(#cp44)"><path class="a" d="m430.7 200.5h34.6v42.2h-34.6z"/></g></g></g></g></g><g clip-path="url(#cp45)"><g clip-path="url(#cp46)"><g clip-path="url(#cp47)"><g clip-path="url(#cp48)"><g clip-path="url(#cp49)"><path class="a" d="m404.8 30.6h141.4v141.9h-141.4z"/></g></g></g></g></g><g clip-path="url(#cp50)"><g clip-path="url(#cp51)"><g clip-path="url(#cp52)"><g clip-path="url(#cp53)"><g clip-path="url(#cp54)"><path class="a" d="m512.5 199.7h33.9v43.7h-33.9z"/></g></g></g></g></g></svg>